<?xml version="1.0" standalone="no"?>
<!DOCTYPE svg PUBLIC "-//W3C//DTD SVG 20010904//EN"
 "http://www.w3.org/TR/2001/REC-SVG-20010904/DTD/svg10.dtd">
<svg version="1.0" xmlns="http://www.w3.org/2000/svg"
 width="500.000000pt" height="500.000000pt" viewBox="0 0 500.000000 500.000000"
 preserveAspectRatio="xMidYMid meet">
<metadata>
Created by potrace 1.14, written by Peter Selinger 2001-2017
</metadata>
<g transform="translate(0.000000,500.000000) scale(0.100000,-0.100000)"
fill="#000000" stroke="none">
<path d="M2447 4944 c-1 -1 -52 -5 -112 -8 -122 -7 -329 -46 -348 -65 -10 -10
-2 -12 38 -6 28 3 59 8 70 10 11 3 47 7 80 9 33 3 101 8 150 13 114 10 490 9
615 -1 96 -8 122 -3 40 8 -53 7 -97 15 -125 21 -46 10 -399 27 -408 19z"/>
<path d="M2405 4882 c-16 -2 -32 -8 -35 -13 -6 -9 -68 -15 -240 -24 -134 -7
-168 -15 -410 -98 -339 -117 -472 -177 -645 -293 -111 -74 -125 -86 -238 -196
-54 -54 -102 -98 -107 -98 -21 0 -229 -250 -308 -370 -57 -87 -177 -326 -196
-391 -19 -62 -18 -59 -7 -59 9 0 104 187 98 193 -1 1 7 16 19 32 11 17 35 59
54 95 18 36 55 98 82 138 50 74 177 216 186 208 2 -3 -25 -45 -61 -94 -63 -86
-147 -216 -147 -228 0 -3 -8 -18 -18 -32 -19 -28 -44 -82 -38 -82 2 0 23 25
47 55 48 61 75 60 36 -1 -13 -22 -43 -75 -65 -118 -41 -79 -88 -139 -102 -131
-15 9 -125 -255 -144 -347 -3 -13 -10 -41 -15 -63 -5 -22 -12 -58 -15 -80 -4
-23 -9 -52 -11 -65 -15 -75 -20 -193 -19 -433 1 -147 0 -266 -2 -265 -1 2 -5
33 -8 69 -7 73 -11 93 -31 194 -9 42 -14 110 -12 175 3 100 3 102 -8 50 -12
-58 -12 -310 0 -420 4 -36 18 -123 32 -195 13 -71 27 -142 30 -157 3 -16 9
-28 13 -28 4 0 1 33 -7 72 -17 92 -19 166 -4 181 8 8 11 1 12 -28 2 -84 44
-275 75 -352 11 -26 34 -54 34 -41 0 8 -51 244 -56 261 -10 33 -42 222 -38
226 7 8 12 -3 18 -39 34 -202 109 -502 150 -595 45 -104 90 -195 93 -191 3 2
0 14 -7 25 -6 12 -9 21 -6 21 8 0 76 -142 72 -149 -7 -10 84 -171 96 -171 4 0
-2 17 -14 38 -17 29 -19 34 -5 23 9 -7 17 -18 17 -23 0 -8 125 -176 199 -267
19 -24 36 -50 37 -58 4 -22 54 -72 68 -67 6 2 43 -23 81 -57 187 -161 347
-272 519 -357 269 -132 464 -193 776 -242 91 -14 162 -17 345 -15 127 2 246 6
265 9 19 4 67 11 105 17 113 17 322 74 440 119 61 24 151 58 200 77 104 40
361 204 451 288 6 5 29 23 50 40 68 51 223 206 306 305 161 191 308 441 404
685 41 107 97 294 110 374 3 18 8 43 10 55 3 11 7 37 10 56 2 19 6 46 9 60 10
53 18 171 20 315 2 83 8 175 14 205 10 56 7 352 -4 425 -34 219 -80 377 -147
510 -144 283 -317 518 -491 667 -66 57 -61 48 46 -78 145 -170 97 -131 -118
98 -49 52 -105 103 -122 112 -18 9 -104 64 -190 122 -172 115 -381 224 -537
279 -102 37 -333 100 -396 109 -39 5 -101 13 -174 21 -63 8 -392 13 -431 7z
m-2261 -2728 c3 -8 2 -12 -4 -9 -6 3 -10 10 -10 16 0 14 7 11 14 -7z m-26 -69
c-3 -3 -9 2 -12 12 -6 14 -5 15 5 6 7 -7 10 -15 7 -18z"/>
<path d="M1670 4775 c-163 -56 -211 -77 -187 -83 24 -5 329 107 321 119 -3 5
-6 9 -7 8 -1 0 -58 -20 -127 -44z"/>
<path d="M121 1795 c-1 -17 47 -189 80 -288 32 -96 76 -187 90 -187 8 0 1 21
-51 150 -13 30 -44 118 -71 195 -26 77 -48 136 -48 130z"/>
<path d="M334 1305 c9 -43 117 -257 170 -340 79 -122 48 -35 -44 125 -21 36
-59 106 -85 155 -26 50 -44 77 -41 60z"/>
<path d="M750 766 c0 -2 7 -7 16 -10 8 -3 12 -2 9 4 -6 10 -25 14 -25 6z"/>
<path d="M850 665 c0 -14 164 -165 179 -165 5 0 -31 38 -78 85 -79 77 -101 94
-101 80z"/>
<path d="M1110 383 c1 -14 35 -49 60 -60 51 -24 105 -44 95 -35 -16 14 -146
102 -150 102 -3 0 -5 -3 -5 -7z"/>
<path d="M1270 326 c0 -6 107 -76 116 -76 4 0 -8 12 -27 26 -37 28 -89 57 -89
50z"/>
<path d="M1593 95 c27 -14 56 -25 65 -23 15 3 -13 16 -93 43 -11 3 2 -6 28
-20z"/>
</g>
</svg>
